<svg xmlns="http://www.w3.org/2000/svg" viewBox="0 0 500 500">
  <rect width="500" height="500" fill="white"/>
  <g transform="translate(250,250)">
    <g transform="scale(0.5)">
      <path fill="#446A2F" d="M-100,100 C-100,100 -100,0 -100,-100 C-100,-100 0,-100 100,-100 C100,-100 100,0 100,100 C100,100 0,100 -100,100 Z"/>
      <path fill="#6A8A4F" d="M-100,100 C-100,100 -100,0 -100,-100 C-100,-100 0,-100 100,-100 C100,-100 100,0 100,100 C100,100 0,100 -100,100 Z" transform="rotate(120)"/>
      <path fill="#8AA86F" d="M-100,100 C-100,100 -100,0 -100,-100 C-100,-100 0,-100 100,-100 C100,-100 100,0 100,100 C100,100 0,100 -100,100 Z" transform="rotate(240)"/>
      <path fill="#D4A741" d="M-50,50 C-50,50 -50,0 -50,-50 C-50,-50 0,-50 50,-50 C50,-50 50,0 50,50 C50,50 0,50 -50,50 Z" transform="rotate(60)"/>
      <path fill="#E6B85C" d="M-50,50 C-50,50 -50,0 -50,-50 C-50,-50 0,-50 50,-50 C50,-50 50,0 50,50 C50,50 0,50 -50,50 Z" transform="rotate(180)"/>
      <path fill="#F8C977" d="M-50,50 C-50,50 -50,0 -50,-50 C-50,-50 0,-50 50,-50 C50,-50 50,0 50,50 C50,50 0,50 -50,50 Z" transform="rotate(300)"/>
      <path fill="#446A2F" d="M-150,150 C-150,150 -150,0 -150,-150 C-150,-150 0,-150 150,-150 C150,-150 150,0 150,150 C150,150 0,150 -150,150 Z" transform="rotate(30)"/>
    </g>
    <text x="-100" y="200" font-size="100" font-weight="bold" fill="#003057" font-family="Arial">FOFAL</text>
  </g>
</svg>